<svg xmlns="http://www.w3.org/2000/svg" viewBox="0 0 24 24" fill="none" stroke="#cfd3da" stroke-width="2" stroke-linecap="round" stroke-linejoin="round"><circle cx="13.5" cy="6.5" r="1" fill="#cfd3da" stroke="none"/><circle cx="17.5" cy="10.5" r="1" fill="#cfd3da" stroke="none"/><circle cx="8.5" cy="7.5" r="1" fill="#cfd3da" stroke="none"/><circle cx="6.5" cy="12.5" r="1" fill="#cfd3da" stroke="none"/><path d="M12 2C6.5 2 2 6.5 2 12s4.5 10 10 10c.93 0 1.65-.75 1.65-1.69 0-.44-.18-.83-.44-1.12-.29-.29-.44-.65-.44-1.13a1.64 1.64 0 0 1 1.67-1.67h2c3.05 0 5.55-2.5 5.55-5.55C21.97 6.01 17.46 2 12 2z"/></svg>
